<svg width="75" height="78" viewBox="0 0 75 78" fill="none" xmlns="http://www.w3.org/2000/svg">
<path d="M69.8696 19.9414C67.1589 17.2372 63.5383 15.3493 59.3357 14.4457C58.9417 14.3609 58.573 14.1852 58.2589 13.9326C57.9449 13.6801 57.6942 13.3576 57.5269 12.991C55.9815 9.61551 53.6416 6.6645 50.7074 4.3902C46.9526 1.51789 42.3863 0.000114333 37.5 0.000114333C31.9321 -0.0175606 26.5525 2.01462 22.3869 5.70917C18.4752 9.19408 15.7742 14.0077 14.5587 19.5826C14.4574 20.0544 14.2264 20.4887 13.8917 20.8365C13.557 21.1843 13.132 21.4319 12.6643 21.5513C8.62338 22.5696 6.89224 23.5782 4.71013 25.5211C1.61638 28.2754 0 32.0271 0 36.3363C0 41.2744 1.81519 45.3299 5.24838 48.0648C8.25647 50.4586 12.3653 51.7243 17.1336 51.7243H54.9569C60.3233 51.7243 65.3195 49.8719 69.0194 46.5066C72.8728 43.0071 75 38.1547 75 32.8449C75 27.755 73.222 23.2938 69.8696 19.9414Z" fill="#C9E8E0"/>
<path d="M14.2241 69.8276C13.756 69.8274 13.2968 69.7001 12.8954 69.4593C12.494 69.2186 12.1655 68.8734 11.9448 68.4607C11.7242 68.0479 11.6197 67.583 11.6425 67.1155C11.6653 66.648 11.8145 66.1954 12.0743 65.8061L17.2467 58.0475C17.4352 57.7649 17.6775 57.5223 17.9597 57.3334C18.242 57.1445 18.5587 57.0131 18.8918 56.9466C19.2248 56.8801 19.5677 56.8799 19.9009 56.9459C20.234 57.0119 20.5509 57.1429 20.8334 57.3314C21.116 57.5199 21.3586 57.7622 21.5475 58.0445C21.7364 58.3267 21.8678 58.6434 21.9343 58.9765C22.0008 59.3095 22.001 59.6524 21.935 59.9856C21.869 60.3187 21.738 60.6356 21.5495 60.9182L16.3771 68.6768C16.1407 69.031 15.8205 69.3215 15.4449 69.5222C15.0693 69.723 14.6499 69.8279 14.2241 69.8276Z" fill="#C9E8E0"/>
<path d="M21.9828 77.5863C21.5149 77.5857 21.0559 77.4582 20.6548 77.2173C20.2536 76.9765 19.9253 76.6313 19.7048 76.2186C19.4844 75.8058 19.38 75.341 19.4029 74.8737C19.4257 74.4063 19.575 73.9539 19.8347 73.5647L30.1795 58.0475C30.368 57.7649 30.6103 57.5223 30.8925 57.3334C31.1748 57.1445 31.4915 57.0131 31.8246 56.9466C32.1576 56.8801 32.5005 56.8799 32.8337 56.9459C33.1668 57.0119 33.4837 57.1429 33.7662 57.3314C34.0488 57.5199 34.2914 57.7622 34.4803 58.0445C34.6692 58.3267 34.8006 58.6434 34.8671 58.9765C34.9336 59.3095 34.9338 59.6524 34.8678 59.9856C34.8018 60.3187 34.6708 60.6356 34.4823 60.9182L24.1375 76.4354C23.9009 76.7899 23.5805 77.0805 23.2046 77.2812C22.8287 77.482 22.409 77.5868 21.9828 77.5863Z" fill="#C9E8E0"/>
<path d="M40.0862 69.8276C39.6182 69.8274 39.159 69.7001 38.7576 69.4593C38.3562 69.2186 38.0277 68.8734 37.807 68.4607C37.5864 68.0479 37.4819 67.583 37.5047 67.1155C37.5275 66.648 37.6767 66.1954 37.9365 65.8061L43.1089 58.0475C43.4896 57.4769 44.0813 57.0809 44.7539 56.9466C45.4266 56.8123 46.125 56.9507 46.6956 57.3314C47.2662 57.7121 47.6622 58.3038 47.7965 58.9765C47.9308 59.6491 47.7924 60.3476 47.4117 60.9182L42.2393 68.6768C42.0029 69.0311 41.6827 69.3215 41.3071 69.5222C40.9315 69.723 40.5121 69.8279 40.0862 69.8276Z" fill="#C9E8E0"/>
<path d="M47.8449 77.5863C47.3769 77.586 46.9177 77.4587 46.5163 77.218C46.1149 76.9772 45.7863 76.6321 45.5657 76.2193C45.345 75.8065 45.2405 75.3416 45.2633 74.8741C45.2861 74.4066 45.4354 73.9541 45.6951 73.5647L56.04 58.0475C56.4206 57.4769 57.0124 57.0809 57.685 56.9466C58.3577 56.8123 59.0561 56.9507 59.6267 57.3314C60.1973 57.7121 60.5933 58.3038 60.7276 58.9765C60.8619 59.6491 60.7234 60.3476 60.3428 60.9182L49.9979 76.4354C49.7616 76.7897 49.4414 77.0801 49.0658 77.2809C48.6902 77.4816 48.2708 77.5865 47.8449 77.5863Z" fill="#C9E8E0"/>
</svg>
