<svg width="72" height="72" viewBox="0 0 72 72" fill="none" xmlns="http://www.w3.org/2000/svg">
<path d="M36 0C36.7161 0 37.4028 0.284463 37.9092 0.790811C38.4155 1.29716 38.7 1.98392 38.7 2.7V8.1C38.7 8.81608 38.4155 9.50284 37.9092 10.0092C37.4028 10.5155 36.7161 10.8 36 10.8C35.2839 10.8 34.5972 10.5155 34.0908 10.0092C33.5845 9.50284 33.3 8.81608 33.3 8.1V2.7C33.3 1.98392 33.5845 1.29716 34.0908 0.790811C34.5972 0.284463 35.2839 0 36 0ZM54 36C54 40.7739 52.1036 45.3523 48.7279 48.7279C45.3523 52.1036 40.7739 54 36 54C31.2261 54 26.6477 52.1036 23.2721 48.7279C19.8964 45.3523 18 40.7739 18 36C18 31.2261 19.8964 26.6477 23.2721 23.2721C26.6477 19.8964 31.2261 18 36 18C40.7739 18 45.3523 19.8964 48.7279 23.2721C52.1036 26.6477 54 31.2261 54 36ZM69.3 38.7C70.0161 38.7 70.7028 38.4155 71.2092 37.9092C71.7155 37.4028 72 36.7161 72 36C72 35.2839 71.7155 34.5972 71.2092 34.0908C70.7028 33.5845 70.0161 33.3 69.3 33.3H63.9C63.1839 33.3 62.4972 33.5845 61.9908 34.0908C61.4845 34.5972 61.2 35.2839 61.2 36C61.2 36.7161 61.4845 37.4028 61.9908 37.9092C62.4972 38.4155 63.1839 38.7 63.9 38.7H69.3ZM36 61.2C36.7161 61.2 37.4028 61.4845 37.9092 61.9908C38.4155 62.4972 38.7 63.1839 38.7 63.9V69.3C38.7 70.0161 38.4155 70.7028 37.9092 71.2092C37.4028 71.7155 36.7161 72 36 72C35.2839 72 34.5972 71.7155 34.0908 71.2092C33.5845 70.7028 33.3 70.0161 33.3 69.3V63.9C33.3 63.1839 33.5845 62.4972 34.0908 61.9908C34.5972 61.4845 35.2839 61.2 36 61.2ZM8.1 38.7C8.81608 38.7 9.50284 38.4155 10.0092 37.9092C10.5155 37.4028 10.8 36.7161 10.8 36C10.8 35.2839 10.5155 34.5972 10.0092 34.0908C9.50284 33.5845 8.81608 33.3 8.1 33.3H2.7C1.98392 33.3 1.29716 33.5845 0.790811 34.0908C0.284463 34.5972 0 35.2839 0 36C0 36.7161 0.284463 37.4028 0.790811 37.9092C1.29716 38.4155 1.98392 38.7 2.7 38.7H8.1ZM7.992 7.992C8.49825 7.48638 9.1845 7.20238 9.9 7.20238C10.6155 7.20238 11.3017 7.48638 11.808 7.992L17.208 13.392C17.6849 13.9038 17.9446 14.5808 17.9322 15.2803C17.9199 15.9798 17.6365 16.6472 17.1418 17.1418C16.6472 17.6365 15.9798 17.9199 15.2803 17.9322C14.5808 17.9446 13.9038 17.6849 13.392 17.208L7.992 11.808C7.48638 11.3017 7.20238 10.6155 7.20238 9.9C7.20238 9.1845 7.48638 8.49825 7.992 7.992ZM11.808 64.008C11.5608 64.2733 11.2627 64.486 10.9315 64.6336C10.6003 64.7812 10.2428 64.8605 9.88028 64.8669C9.51775 64.8733 9.15765 64.8066 8.82145 64.6708C8.48525 64.535 8.17985 64.3329 7.92346 64.0765C7.66707 63.8201 7.46495 63.5147 7.32916 63.1785C7.19336 62.8424 7.12667 62.4823 7.13307 62.1197C7.13947 61.7572 7.21882 61.3997 7.36639 61.0685C7.51396 60.7373 7.72673 60.4392 7.992 60.192L13.392 54.792C13.6392 54.5267 13.9373 54.314 14.2685 54.1664C14.5997 54.0188 14.9572 53.9395 15.3197 53.9331C15.6822 53.9267 16.0424 53.9934 16.3786 54.1292C16.7147 54.265 17.0202 54.4671 17.2765 54.7235C17.5329 54.9799 17.735 55.2853 17.8708 55.6214C18.0066 55.9576 18.0733 56.3177 18.0669 56.6803C18.0605 57.0428 17.9812 57.4003 17.8336 57.7315C17.686 58.0627 17.4733 58.3608 17.208 58.608L11.808 64.008ZM64.008 7.992C63.5018 7.48638 62.8155 7.20238 62.1 7.20238C61.3845 7.20238 60.6982 7.48638 60.192 7.992L54.792 13.392C54.3151 13.9038 54.0554 14.5808 54.0678 15.2803C54.0801 15.9798 54.3635 16.6472 54.8582 17.1418C55.3528 17.6365 56.0202 17.9199 56.7197 17.9322C57.4192 17.9446 58.0962 17.6849 58.608 17.208L64.008 11.808C64.5136 11.3017 64.7976 10.6155 64.7976 9.9C64.7976 9.1845 64.5136 8.49825 64.008 7.992ZM60.192 64.008C60.4392 64.2733 60.7373 64.486 61.0685 64.6336C61.3997 64.7812 61.7572 64.8605 62.1197 64.8669C62.4823 64.8733 62.8424 64.8066 63.1785 64.6708C63.5147 64.535 63.8201 64.3329 64.0765 64.0765C64.3329 63.8201 64.535 63.5147 64.6708 63.1785C64.8066 62.8424 64.8733 62.4823 64.8669 62.1197C64.8605 61.7572 64.7812 61.3997 64.6336 61.0685C64.486 60.7373 64.2733 60.4392 64.008 60.192L58.608 54.792C58.3608 54.5267 58.0627 54.314 57.7315 54.1664C57.4003 54.0188 57.0428 53.9395 56.6803 53.9331C56.3177 53.9267 55.9576 53.9934 55.6214 54.1292C55.2853 54.265 54.9799 54.4671 54.7235 54.7235C54.4671 54.9799 54.265 55.2853 54.1292 55.6214C53.9934 55.9576 53.9267 56.3177 53.9331 56.6803C53.9395 57.0428 54.0188 57.4003 54.1664 57.7315C54.314 58.0627 54.5267 58.3608 54.792 58.608L60.192 64.008Z" fill="#EFAA82"/>
</svg>
